<?xml version="1.0" encoding="utf-8"?>
<!-- Generator: Adobe Illustrator 24.0.1, SVG Export Plug-In . SVG Version: 6.00 Build 0)  -->
<svg version="1.1" id="Laag_1" xmlns="http://www.w3.org/2000/svg" xmlns:xlink="http://www.w3.org/1999/xlink" x="0px" y="0px"
	 viewBox="0 0 960 960" style="enable-background:new 0 0 960 960;" xml:space="preserve">
<style type="text/css">
	.st0{fill:none;stroke:#000000;stroke-width:7.5;stroke-linejoin:round;}
	.st1{fill:none;stroke:#000000;stroke-width:8;stroke-linecap:round;stroke-linejoin:round;}
	.st2{stroke:#000000;stroke-width:4;stroke-linecap:round;stroke-linejoin:round;}
	.st3{fill:none;stroke:#000000;stroke-width:15;stroke-linejoin:round;}
	.st4{fill:#FF0000;}
</style>
<title>com.qubino/drivers/ZMNHQD/assets/icon</title>
<desc>Created with Sketch.</desc>
<g id="com.qubino_x2F_drivers_x2F_ZMNHQD_x2F_assets_x2F_icon">
	<path id="Path" class="st0" d="M741.5,183.7c0,9.2-3.1,169.4-9.3,480.4L357.5,797.7c4.4-225,7.7-394,9.9-507.1
		c124.4-35.7,248.6-71.3,372.7-106.9"/>
	<path id="Path_1_" class="st0" d="M816.5,742.1c-249.2,91.4-438.2,160.3-567,206.6c5-255.4,10-508.9,15-764.7
		c188.2-53.8,377.1-107.6,565-161.3C829.5,36.6,825.2,276.4,816.5,742.1z"/>
	<path id="Path_2_" class="st0" d="M242.5,173.7c7,3.7,15,6.3,22,10"/>
	<path id="Path_3_" class="st1" d="M229.5,936.7c6.7,4,13.3,8,20,12"/>
	<line id="Path_4_" class="st0" x1="193.5" y1="187.7" x2="135.5" y2="247.7"/>
	<line id="Path_5_" class="st0" x1="240.5" y1="306.7" x2="134.5" y2="248.7"/>
	<line id="Path_6_" class="st0" x1="233.5" y1="681.7" x2="131.5" y2="625.7"/>
	<line id="Path_7_" class="st0" x1="135.5" y1="247.7" x2="129.5" y2="625.7"/>
	<line id="Path_8_" class="st0" x1="242.5" y1="215.7" x2="194.5" y2="187.7"/>
	<line id="Path_9_" class="st0" x1="809.5" y1="10.7" x2="243.5" y2="172.7"/>
	<g id="Group-2" transform="translate(130.500000, 269.680000)">
		<polyline id="Path_10_" class="st2" points="4.5,16.8 4.5,0.3 4.7,0.7 110.5,58.9 110.5,75.3 4.7,17.1 		"/>
		<polyline id="Path_11_" class="st2" points="3.5,50.3 4.5,35 3.7,34.3 109.5,92 109.5,108.3 3.7,50.6 		"/>
		<polyline id="Path_12_" class="st2" points="3.5,83.8 3.5,67.3 3.7,67.7 109.5,125.9 109.5,142.3 3.7,84.1 		"/>
		<polyline id="Path_13_" class="st2" points="3.5,117.8 3.5,101.3 3.7,101.7 109.5,159.9 109.5,176.3 3.7,118.1 		"/>
		<polyline id="Path_14_" class="st2" points="1.5,231.8 1.5,215.3 1.7,215.7 105.5,273.9 105.5,290.3 1.7,232.1 		"/>
		<polyline id="Path_15_" class="st2" points="0.5,263.8 0.5,247.3 0.7,247.7 104.5,305.9 104.5,322.3 0.7,264.1 		"/>
		<polyline id="Path_16_" class="st2" points="-0.5,295.6 -0.5,279.3 -0.3,279.7 103.5,336 103.5,352.3 -0.3,296 		"/>
		<polyline id="Path_17_" class="st2" points="-0.5,326.8 -0.5,310.3 -0.3,310.7 103.5,367.9 103.5,384.3 -0.3,327.1 		"/>
	</g>
	<path id="Path_18_" class="st0" d="M228.5,935.7c5.5-255.1,10.8-506.5,16-762"/>
	<line id="Path_19_" class="st0" x1="242.5" y1="173.7" x2="194.5" y2="187.7"/>
	<path id="Combined-Shape" class="st3" d="M810.5,11l1.6,0.3L829,22.3c0,13.9-4.4,254-13.1,720.4c-248.4,91.1-437.1,159.9-566,206.3
		c-0.4,0.1-7.7-4.4-21.9-13.5c1.7-87.6,3.5-174.8,5.2-261.9L129,625.4l5.2-376.6l1-0.4l-0.2-0.2l58.7-60.8l0-0.3l49.4-14.1l0.7,0.5
		L810.5,11z"/>
</g>
<path class="st4" d="M591.8,676.5c0,20.2-16.3,36.5-36.5,36.5c-20.2,0-36.5-16.3-36.5-36.5s16.3-36.5,36.5-36.5
	C575.4,640,591.8,656.3,591.8,676.5z M554,696.6h5.1v-39h-4.5l-8.5,4.6l1,4l6.8-3.7h0.1V696.6z"/>
<path class="st4" d="M725.2,414.5c0,20.2-16.3,36.5-36.5,36.5s-36.5-16.3-36.5-36.5s16.3-36.5,36.5-36.5S725.2,394.3,725.2,414.5z
	 M701,433.9v-4.4h-17.5v-0.1l3.1-2.9c8.2-7.9,13.4-13.7,13.4-20.9c0-5.6-3.5-11.3-11.9-11.3c-4.5,0-8.3,1.7-11,4l1.7,3.7
	c1.8-1.5,4.7-3.3,8.3-3.3c5.8,0,7.7,3.7,7.7,7.6c-0.1,5.9-4.6,10.9-14.5,20.4l-4.1,4v3.2L701,433.9L701,433.9z"/>
</svg>
