<?xml version="1.0" encoding="utf-8"?>
<!-- Generator: Adobe Illustrator 24.0.1, SVG Export Plug-In . SVG Version: 6.00 Build 0)  -->
<svg version="1.1" id="Laag_1" xmlns="http://www.w3.org/2000/svg" xmlns:xlink="http://www.w3.org/1999/xlink" x="0px" y="0px"
	 viewBox="0 0 685 919.36" style="enable-background:new 0 0 685 919.36;" xml:space="preserve">
<style type="text/css">
	.st0{fill:none;stroke:#000000;stroke-width:4;stroke-linecap:round;stroke-linejoin:round;stroke-miterlimit:10;}
	.st1{fill:none;stroke:#000000;stroke-width:8;stroke-linecap:round;stroke-linejoin:round;stroke-miterlimit:10;}
	.st2{fill:none;stroke:#000000;stroke-width:2;stroke-linecap:round;stroke-linejoin:round;stroke-miterlimit:10;}
	.st3{stroke:#000000;stroke-width:4;stroke-linecap:round;stroke-linejoin:round;stroke-miterlimit:10;}
	.st4{fill:#FF0000;}
</style>
<g>
	<path class="st0" d="M597.18,171.8c0,13.44-8.21,466.51-9.08,493.28c-121.68,34.47-242.23,68.61-365.46,103.52
		c3.24-164.6,6.45-328.03,9.69-492.93C353.68,241,474.78,206.4,595.88,171.8"/>
</g>
<path class="st1" d="M112,162c6.34,3.67,13.68,6.34,20,10"/>
<path class="st1" d="M98.41,904.36c6.34,3.67,12.68,7.34,19,11"/>
<path class="st2" d="M109,319"/>
<path class="st2" d="M106.9,353.86"/>
<line class="st0" x1="111.28" y1="202.52" x2="64" y2="176"/>
<path class="st1" d="M681,15c0,20.26-11.38,703.55-12.68,743.92C484.85,810.89,303.09,862.37,117.29,915
	c4.88-248.19,9.72-494.6,14.61-743.22C314.85,119.51,498.41,67.17,681,15 M681,15c-6.32-3.66-12.13-7.19-18.48-10.86 M663,4L112,162
	"/>
<path class="st3" d="M6,337.33v-16l0.19,0.34L108,378.33v16L6.19,337.67 M10.14,265.17 M64,176L7,235 M109,292L7,235 M102,656
	L3.12,601.42 M7,235L2,601 M7.19,272.34L109,329v-16L7.19,256.34L7,256v16 M6.19,304.34L108,361v-16L6.19,288.34L7,289l-1,15
	 M6.19,370.34L108,427v-16L6.19,354.34L6,354v16 M5.19,481.34L105,538v-16L5.19,465.34L5,465v16 M4.19,512.45L104,569.11v-16
	L4.19,496.45L4,496.11v16 M3.19,543.56L103,598.89v-16L3.19,527.56L3,527.22v16 M3.19,573.34L103,629v-16L3.19,557.34L3,557v16"/>
<path class="st1" d="M97.6,903.39c4.95-248.18,9.75-492.77,14.4-741.39"/>
<line class="st0" x1="112" y1="162" x2="63.99" y2="175.73"/>
<path class="st4" d="M453.65,670.5c0,20.16-16.34,36.5-36.5,36.5c-20.16,0-36.5-16.34-36.5-36.5s16.34-36.5,36.5-36.5
	C437.31,634,453.65,650.34,453.65,670.5z M415.92,690.61h5.1v-39h-4.5l-8.52,4.56l1.02,4.02l6.78-3.66h0.12V690.61z"/>
<path class="st4" d="M587.15,408.5c0,20.16-16.34,36.5-36.5,36.5s-36.5-16.34-36.5-36.5s16.34-36.5,36.5-36.5
	S587.15,388.34,587.15,408.5z M562.86,427.91v-4.38h-17.52v-0.12l3.12-2.88c8.22-7.92,13.44-13.74,13.44-20.94
	c0-5.58-3.54-11.34-11.94-11.34c-4.5,0-8.34,1.68-11.04,3.96l1.68,3.72c1.8-1.5,4.74-3.3,8.28-3.3c5.82,0,7.74,3.66,7.74,7.62
	c-0.06,5.88-4.56,10.92-14.52,20.4l-4.14,4.02v3.24H562.86z"/>
</svg>
